<?xml version="1.0" encoding="utf-8"?>
<!-- Generator: Adobe Illustrator 19.2.1, SVG Export Plug-In . SVG Version: 6.00 Build 0)  -->
<svg version="1.1" id="Layer_1" xmlns="http://www.w3.org/2000/svg" xmlns:xlink="http://www.w3.org/1999/xlink" x="0px" y="0px"
	 viewBox="0 0 2500 720" style="enable-background:new 0 0 2500 720;" xml:space="preserve">
<style type="text/css">
	.st0{fill:#DDCCC0;}
	.st1{fill:none;stroke:#F5F0ED;stroke-width:10;stroke-miterlimit:10;}
	.st2{fill:#EDE6E0;}
	.st3{fill:#DDCCC0;stroke:#F5F0ED;stroke-width:1.561;stroke-miterlimit:10;}
	.st4{fill:url(#SVGID_1_);}
</style>
<rect class="st0" width="2500" height="720"/>
<g>
	<g>
		<path class="st1" d="M628,173.7v331.7c0,5.2-4.2,9.3-9.3,9.3h-362c-5.2,0-9.3-4.2-9.3-9.3V173.7c0-5.2,4.2-9.3,9.3-9.3h362
			C623.8,164.3,628,168.5,628,173.7z"/>
		<g>
			<path class="st0" d="M618.7,513.9h-362c-5.2,0-9.3-4.2-9.3-9.3V186.9H628v317.7C628,509.8,623.8,513.9,618.7,513.9z"/>
			<rect x="267.4" y="204" class="st2" width="13.2" height="13.2"/>
			<rect x="288.8" y="204" class="st2" width="41.2" height="13.2"/>
			<rect x="335.8" y="204" class="st2" width="173.6" height="13.2"/>
			<rect x="288.8" y="225.5" class="st2" width="59.7" height="13.2"/>
			<rect x="308.3" y="247" class="st2" width="78.5" height="13.2"/>
			<rect x="392.7" y="247" class="st2" width="20.3" height="13.2"/>
			<rect x="308.3" y="268.6" class="st2" width="59.7" height="13.2"/>
			<rect x="288.8" y="290" class="st2" width="35.3" height="13.2"/>
			<rect x="288.8" y="311.5" class="st2" width="59.7" height="13.2"/>
			<rect x="308.3" y="333.1" class="st2" width="59.7" height="13.2"/>
			<rect x="373.8" y="333.1" class="st2" width="13.2" height="13.2"/>
			<rect x="391.9" y="333.1" class="st2" width="109.3" height="13.2"/>
			<rect x="507" y="333.1" class="st2" width="62.1" height="13.2"/>
			<rect x="327.7" y="354.5" class="st2" width="46.1" height="13.2"/>
			<rect x="379.7" y="354.5" class="st2" width="62.8" height="13.2"/>
			<rect x="327.7" y="376.1" class="st2" width="59.7" height="13.2"/>
			<rect x="288.8" y="397.6" class="st2" width="49.3" height="13.2"/>
			<rect x="288.8" y="419" class="st2" width="35.3" height="13.2"/>
			<rect x="330" y="419" class="st2" width="61.9" height="13.2"/>
			<rect x="308.3" y="440.6" class="st2" width="59.7" height="13.2"/>
			<rect x="373.8" y="440.6" class="st2" width="29" height="13.2"/>
			<rect x="288.8" y="462" class="st2" width="59.7" height="13.2"/>
			<rect x="288.8" y="483.6" class="st2" width="49.3" height="13.2"/>
			<rect x="267.4" y="225.5" class="st2" width="13.2" height="13.2"/>
			<rect x="267.4" y="247" class="st2" width="13.2" height="13.2"/>
			<rect x="267.4" y="268.6" class="st2" width="13.2" height="13.2"/>
			<rect x="267.4" y="290" class="st2" width="13.2" height="13.2"/>
			<rect x="267.4" y="311.5" class="st2" width="13.2" height="13.2"/>
			<rect x="267.4" y="333.1" class="st2" width="13.2" height="13.2"/>
			<rect x="267.4" y="354.5" class="st2" width="13.2" height="13.2"/>
			<rect x="267.4" y="376.1" class="st2" width="13.2" height="13.2"/>
			<rect x="267.4" y="397.6" class="st2" width="13.2" height="13.2"/>
			<rect x="267.4" y="419" class="st2" width="13.2" height="13.2"/>
			<rect x="267.4" y="440.6" class="st2" width="13.2" height="13.2"/>
			<rect x="267.4" y="462" class="st2" width="13.2" height="13.2"/>
			<rect x="267.4" y="483.6" class="st2" width="13.2" height="13.2"/>
			<g>
				<path class="st2" d="M248.4,185.9v-13c0-4.5,3.8-8.3,8.3-8.3h362c4.5,0,8.3,3.8,8.3,8.3v13H248.4z"/>
				<path class="st0" d="M618.7,165.5c4,0,7.3,3.2,7.3,7.3v11.9H249.5v-11.9c0-4,3.2-7.3,7.3-7.3H618.7 M618.7,163.5h-362
					c-5.2,0-9.3,4.2-9.3,9.3v14H628v-14C628,167.7,623.8,163.5,618.7,163.5L618.7,163.5z"/>
			</g>
		</g>
	</g>
	<circle class="st0" cx="259.8" cy="175.2" r="3"/>
	<circle class="st0" cx="270.4" cy="175.2" r="3"/>
	<circle class="st0" cx="280.9" cy="175.2" r="3"/>
</g>
<g>
	<path class="st1" d="M2400.2,223.2v331.7c0,5.2-4.2,9.3-9.3,9.3h-362c-5.2,0-9.3-4.2-9.3-9.3V223.2c0-5.2,4.2-9.3,9.3-9.3h362
		C2396.1,213.8,2400.2,218,2400.2,223.2z"/>
	<path class="st0" d="M2390.9,563.2h-362c-5.2,0-9.3-4.2-9.3-9.3V236.2h380.7v317.7C2400.2,559.1,2396.1,563.2,2390.9,563.2z"/>
	<rect x="2039.6" y="253.3" class="st2" width="13.2" height="13.2"/>
	<rect x="2061.1" y="253.3" class="st2" width="41.2" height="13.2"/>
	<rect x="2108.1" y="253.3" class="st2" width="173.6" height="13.2"/>
	<rect x="2061.1" y="274.9" class="st2" width="59.7" height="13.2"/>
	<rect x="2080.6" y="296.4" class="st2" width="78.5" height="13.2"/>
	<rect x="2165" y="296.4" class="st2" width="20.3" height="13.2"/>
	<rect x="2080.6" y="317.8" class="st2" width="59.7" height="13.2"/>
	<rect x="2061.1" y="339.4" class="st2" width="35.3" height="13.2"/>
	<rect x="2061.1" y="360.8" class="st2" width="59.7" height="13.2"/>
	<rect x="2080.6" y="382.4" class="st2" width="59.7" height="13.2"/>
	<rect x="2146.2" y="382.4" class="st2" width="13.2" height="13.2"/>
	<rect x="2164.2" y="382.4" class="st2" width="109.3" height="13.2"/>
	<rect x="2279.4" y="382.4" class="st2" width="62.1" height="13.2"/>
	<rect x="2100.1" y="403.9" class="st2" width="46.1" height="13.2"/>
	<rect x="2152" y="403.9" class="st2" width="62.8" height="13.2"/>
	<rect x="2100.1" y="425.3" class="st2" width="59.7" height="13.2"/>
	<rect x="2061.1" y="446.9" class="st2" width="49.3" height="13.2"/>
	<rect x="2061.1" y="468.4" class="st2" width="35.3" height="13.2"/>
	<rect x="2102.3" y="468.4" class="st2" width="61.9" height="13.2"/>
	<rect x="2080.6" y="489.9" class="st2" width="59.7" height="13.2"/>
	<rect x="2146.2" y="489.9" class="st2" width="29" height="13.2"/>
	<rect x="2061.1" y="511.4" class="st2" width="59.7" height="13.2"/>
	<rect x="2061.1" y="533" class="st2" width="49.3" height="13.2"/>
	<rect x="2039.6" y="274.9" class="st2" width="13.2" height="13.2"/>
	<rect x="2039.6" y="296.4" class="st2" width="13.2" height="13.2"/>
	<rect x="2039.6" y="317.8" class="st2" width="13.2" height="13.2"/>
	<rect x="2039.6" y="339.4" class="st2" width="13.2" height="13.2"/>
	<rect x="2039.6" y="360.8" class="st2" width="13.2" height="13.2"/>
	<rect x="2039.6" y="382.4" class="st2" width="13.2" height="13.2"/>
	<rect x="2039.6" y="403.9" class="st2" width="13.2" height="13.2"/>
	<rect x="2039.6" y="425.3" class="st2" width="13.2" height="13.2"/>
	<rect x="2039.6" y="446.9" class="st2" width="13.2" height="13.2"/>
	<rect x="2039.6" y="468.4" class="st2" width="13.2" height="13.2"/>
	<rect x="2039.6" y="489.9" class="st2" width="13.2" height="13.2"/>
	<rect x="2039.6" y="511.4" class="st2" width="13.2" height="13.2"/>
	<rect x="2039.6" y="533" class="st2" width="13.2" height="13.2"/>
	<g>
		<path class="st2" d="M2020.7,235.1v-13c0-4.5,3.8-8.3,8.3-8.3h362c4.5,0,8.3,3.8,8.3,8.3v13H2020.7z"/>
		<path class="st0" d="M2390.9,214.9c4,0,7.3,3.2,7.3,7.3v11.9h-376.5v-11.9c0-4,3.2-7.3,7.3-7.3H2390.9 M2390.9,212.8h-362
			c-5.2,0-9.3,4.2-9.3,9.3v14h380.7v-14C2400.2,217.1,2396.1,212.8,2390.9,212.8L2390.9,212.8z"/>
	</g>
	<circle class="st0" cx="2032" cy="224.5" r="3"/>
	<circle class="st0" cx="2042.6" cy="224.5" r="3"/>
	<circle class="st0" cx="2053.1" cy="224.5" r="3"/>
</g>
<g>
	<path class="st1" d="M2038.4,65.4v331.7c0,5.2-4.2,9.3-9.3,9.3h-361.8c-5.2,0-9.3-4.2-9.3-9.3V65.4c0-5.2,4.2-9.3,9.3-9.3h362
		C2034.2,56.1,2038.4,60.4,2038.4,65.4z"/>
	<path class="st0" d="M2029.1,405.6h-361.8c-5.2,0-9.3-4.2-9.3-9.3V78.6h380.5v317.7C2038.4,401.4,2034.2,405.6,2029.1,405.6z"/>
	<rect x="1677.7" y="95.7" class="st2" width="13.2" height="13.2"/>
	<rect x="1699.3" y="95.7" class="st2" width="41.2" height="13.2"/>
	<rect x="1746.3" y="95.7" class="st2" width="173.6" height="13.2"/>
	<rect x="1699.3" y="117.2" class="st2" width="59.7" height="13.2"/>
	<rect x="1718.8" y="138.7" class="st2" width="78.5" height="13.2"/>
	<rect x="1803.1" y="138.7" class="st2" width="20.3" height="13.2"/>
	<rect x="1718.8" y="160.2" class="st2" width="59.7" height="13.2"/>
	<rect x="1699.3" y="181.8" class="st2" width="35.3" height="13.2"/>
	<rect x="1699.3" y="203.2" class="st2" width="59.7" height="13.2"/>
	<rect x="1718.8" y="224.7" class="st2" width="59.7" height="13.2"/>
	<rect x="1784.3" y="224.7" class="st2" width="13.2" height="13.2"/>
	<rect x="1802.4" y="224.7" class="st2" width="109.3" height="13.2"/>
	<rect x="1917.5" y="224.7" class="st2" width="62.1" height="13.2"/>
	<rect x="1738.2" y="246.3" class="st2" width="46.1" height="13.2"/>
	<rect x="1790.2" y="246.3" class="st2" width="62.8" height="13.2"/>
	<rect x="1738.2" y="267.7" class="st2" width="59.7" height="13.2"/>
	<rect x="1699.3" y="289.3" class="st2" width="49.3" height="13.2"/>
	<rect x="1699.3" y="310.8" class="st2" width="35.3" height="13.2"/>
	<rect x="1740.4" y="310.8" class="st2" width="61.9" height="13.2"/>
	<rect x="1718.8" y="332.2" class="st2" width="59.7" height="13.2"/>
	<rect x="1784.3" y="332.2" class="st2" width="29" height="13.2"/>
	<rect x="1699.3" y="353.8" class="st2" width="59.7" height="13.2"/>
	<rect x="1699.3" y="375.4" class="st2" width="49.3" height="13.2"/>
	<rect x="1677.7" y="117.2" class="st2" width="13.2" height="13.2"/>
	<rect x="1677.7" y="138.7" class="st2" width="13.2" height="13.2"/>
	<rect x="1677.7" y="160.2" class="st2" width="13.2" height="13.2"/>
	<rect x="1677.7" y="181.8" class="st2" width="13.2" height="13.2"/>
	<rect x="1677.7" y="203.2" class="st2" width="13.2" height="13.2"/>
	<rect x="1677.7" y="224.7" class="st2" width="13.2" height="13.2"/>
	<rect x="1677.7" y="246.3" class="st2" width="13.2" height="13.2"/>
	<rect x="1677.7" y="267.7" class="st2" width="13.2" height="13.2"/>
	<rect x="1677.7" y="289.3" class="st2" width="13.2" height="13.2"/>
	<rect x="1677.7" y="310.8" class="st2" width="13.2" height="13.2"/>
	<rect x="1677.7" y="332.2" class="st2" width="13.2" height="13.2"/>
	<rect x="1677.7" y="353.8" class="st2" width="13.2" height="13.2"/>
	<rect x="1677.7" y="375.4" class="st2" width="13.2" height="13.2"/>
	<g>
		<path class="st2" d="M1658.9,77.5v-13c0-4.5,3.8-8.3,8.3-8.3h362c4.5,0,8.3,3.8,8.3,8.3v13H1658.9z"/>
		<path class="st0" d="M2029.1,57.3c4,0,7.3,3.2,7.3,7.3v11.9h-376.5v-12c0-4,3.2-7.3,7.3-7.3L2029.1,57.3 M2029.1,55.2h-361.8
			c-5.2,0-9.3,4.2-9.3,9.3v14h380.5v-14C2038.4,59.5,2034.2,55.2,2029.1,55.2L2029.1,55.2z"/>
	</g>
	<circle class="st0" cx="1670.2" cy="66.9" r="3"/>
	<circle class="st0" cx="1680.7" cy="66.9" r="3"/>
	<circle class="st0" cx="1691.2" cy="66.9" r="3"/>
</g>
<g>
	<g>
		<path class="st1" d="M2201.1,28.1v331.7c0,5.2-4.2,9.3-9.3,9.3H1830c-5.2,0-9.3-4.2-9.3-9.3V28.1c0-5.2,4.2-9.3,9.3-9.3h362
			C2196.9,18.7,2201.1,22.9,2201.1,28.1z"/>
		<g>
			<path class="st0" d="M2191.7,368.3h-361.8c-5.2,0-9.3-4.2-9.3-9.3V41.3h380.7V359C2201.1,364.2,2196.9,368.3,2191.7,368.3z"/>
			<rect x="1840.4" y="58.4" class="st2" width="13.2" height="13.2"/>
			<rect x="1862" y="58.4" class="st2" width="41.2" height="13.2"/>
			<rect x="1909" y="58.4" class="st2" width="173.6" height="13.2"/>
			<rect x="1862" y="79.9" class="st2" width="59.7" height="13.2"/>
			<rect x="1881.4" y="101.4" class="st2" width="78.5" height="13.2"/>
			<rect x="1965.8" y="101.4" class="st2" width="20.3" height="13.2"/>
			<rect x="1881.4" y="123" class="st2" width="59.7" height="13.2"/>
			<rect x="1862" y="144.4" class="st2" width="35.3" height="13.2"/>
			<rect x="1862" y="165.9" class="st2" width="59.7" height="13.2"/>
			<rect x="1881.4" y="187.5" class="st2" width="59.7" height="13.2"/>
			<rect x="1947" y="187.5" class="st2" width="13.2" height="13.2"/>
			<rect x="1965" y="187.5" class="st2" width="109.3" height="13.2"/>
			<rect x="2080.2" y="187.5" class="st2" width="62.1" height="13.2"/>
			<rect x="1900.9" y="208.9" class="st2" width="46.1" height="13.2"/>
			<rect x="1952.8" y="208.9" class="st2" width="62.8" height="13.2"/>
			<rect x="1900.9" y="230.5" class="st2" width="59.7" height="13.2"/>
			<rect x="1862" y="252" class="st2" width="49.3" height="13.2"/>
			<rect x="1862" y="273.4" class="st2" width="35.3" height="13.2"/>
			<rect x="1903.1" y="273.4" class="st2" width="61.9" height="13.2"/>
			<rect x="1881.4" y="295" class="st2" width="59.7" height="13.2"/>
			<rect x="1947" y="295" class="st2" width="29" height="13.2"/>
			<rect x="1862" y="316.4" class="st2" width="59.7" height="13.2"/>
			<rect x="1862" y="338" class="st2" width="49.3" height="13.2"/>
			<rect x="1840.4" y="79.9" class="st2" width="13.2" height="13.2"/>
			<rect x="1840.4" y="101.4" class="st2" width="13.2" height="13.2"/>
			<rect x="1840.4" y="123" class="st2" width="13.2" height="13.2"/>
			<rect x="1840.4" y="144.4" class="st2" width="13.2" height="13.2"/>
			<rect x="1840.4" y="165.9" class="st2" width="13.2" height="13.2"/>
			<rect x="1840.4" y="187.5" class="st2" width="13.2" height="13.2"/>
			<rect x="1840.4" y="208.9" class="st2" width="13.2" height="13.2"/>
			<rect x="1840.4" y="230.5" class="st2" width="13.2" height="13.2"/>
			<rect x="1840.4" y="252" class="st2" width="13.2" height="13.2"/>
			<rect x="1840.4" y="273.4" class="st2" width="13.2" height="13.2"/>
			<rect x="1840.4" y="295" class="st2" width="13.2" height="13.2"/>
			<rect x="1840.4" y="316.4" class="st2" width="13.2" height="13.2"/>
			<rect x="1840.4" y="338" class="st2" width="13.2" height="13.2"/>
			<g>
				<path class="st2" d="M1821.6,40.3v-13c0-4.5,3.8-8.3,8.3-8.3h362c4.5,0,8.3,3.8,8.3,8.3v13H1821.6z"/>
				<path class="st0" d="M2191.7,19.9c4,0,7.3,3.2,7.3,7.3v11.9h-376.5v-12c0-4,3.2-7.3,7.3-7.3L2191.7,19.9 M2191.7,17.9h-361.8
					c-5.2,0-9.3,4.2-9.3,9.3v14h380.7v-14C2201.1,22.1,2196.9,17.9,2191.7,17.9L2191.7,17.9z"/>
			</g>
		</g>
	</g>
	<circle class="st0" cx="1833" cy="29.6" r="3"/>
	<circle class="st0" cx="1843.5" cy="29.6" r="3"/>
	<circle class="st0" cx="1854" cy="29.6" r="3"/>
</g>
<g>
	<path class="st1" d="M827.2,349.3V681c0,5.2-4.2,9.3-9.3,9.3h-362c-5.2,0-9.3-4.2-9.3-9.3V349.3c0-5.2,4.2-9.3,9.3-9.3h362
		C822.9,340,827.2,344.3,827.2,349.3z"/>
	<path class="st0" d="M817.9,689.5h-362c-5.2,0-9.3-4.2-9.3-9.3V362.4h380.7v317.7C827.2,685.3,822.9,689.5,817.9,689.5z"/>
	<rect x="466.5" y="379.6" class="st2" width="13.2" height="13.2"/>
	<rect x="488" y="379.6" class="st2" width="41.2" height="13.2"/>
	<rect x="535" y="379.6" class="st2" width="173.6" height="13.2"/>
	<rect x="488" y="401.1" class="st2" width="59.7" height="13.2"/>
	<rect x="507.4" y="422.5" class="st2" width="78.5" height="13.2"/>
	<rect x="591.8" y="422.5" class="st2" width="20.3" height="13.2"/>
	<rect x="507.4" y="444.1" class="st2" width="59.7" height="13.2"/>
	<rect x="488" y="465.7" class="st2" width="35.3" height="13.2"/>
	<rect x="488" y="487.1" class="st2" width="59.7" height="13.2"/>
	<rect x="507.4" y="508.6" class="st2" width="59.7" height="13.2"/>
	<rect x="573" y="508.6" class="st2" width="13.2" height="13.2"/>
	<rect x="591" y="508.6" class="st2" width="109.3" height="13.2"/>
	<rect x="706.2" y="508.6" class="st2" width="62.1" height="13.2"/>
	<rect x="526.9" y="530.2" class="st2" width="46.1" height="13.2"/>
	<rect x="578.8" y="530.2" class="st2" width="62.8" height="13.2"/>
	<rect x="526.9" y="551.6" class="st2" width="59.7" height="13.2"/>
	<rect x="488" y="573.2" class="st2" width="49.3" height="13.2"/>
	<rect x="488" y="594.7" class="st2" width="35.3" height="13.2"/>
	<rect x="529.1" y="594.7" class="st2" width="61.9" height="13.2"/>
	<rect x="507.4" y="616.1" class="st2" width="59.7" height="13.2"/>
	<rect x="573" y="616.1" class="st2" width="29" height="13.2"/>
	<rect x="488" y="637.7" class="st2" width="59.7" height="13.2"/>
	<rect x="488" y="659.2" class="st2" width="49.3" height="13.2"/>
	<rect x="466.5" y="401.1" class="st2" width="13.2" height="13.2"/>
	<rect x="466.5" y="422.5" class="st2" width="13.2" height="13.2"/>
	<rect x="466.5" y="444.1" class="st2" width="13.2" height="13.2"/>
	<rect x="466.5" y="465.7" class="st2" width="13.2" height="13.2"/>
	<rect x="466.5" y="487.1" class="st2" width="13.2" height="13.2"/>
	<rect x="466.5" y="508.6" class="st2" width="13.2" height="13.2"/>
	<rect x="466.5" y="530.2" class="st2" width="13.2" height="13.2"/>
	<rect x="466.5" y="551.6" class="st2" width="13.2" height="13.2"/>
	<rect x="466.5" y="573.2" class="st2" width="13.2" height="13.2"/>
	<rect x="466.5" y="594.7" class="st2" width="13.2" height="13.2"/>
	<rect x="466.5" y="616.1" class="st2" width="13.2" height="13.2"/>
	<rect x="466.5" y="637.7" class="st2" width="13.2" height="13.2"/>
	<rect x="466.5" y="659.2" class="st2" width="13.2" height="13.2"/>
	<g>
		<path class="st2" d="M447.6,361.4v-13c0-4.5,3.8-8.3,8.3-8.3h362c4.5,0,8.3,3.8,8.3,8.3v13H447.6z"/>
		<path class="st0" d="M817.9,341.1c4,0,7.3,3.2,7.3,7.3v11.9H448.6v-11.9c0-4,3.2-7.3,7.3-7.3H817.9 M817.9,339.1h-362
			c-5.2,0-9.3,4.2-9.3,9.3v14h380.7v-14C827.2,343.4,822.9,339.1,817.9,339.1L817.9,339.1z"/>
	</g>
	<circle class="st0" cx="459" cy="350.8" r="3"/>
	<circle class="st0" cx="469.4" cy="350.8" r="3"/>
	<circle class="st0" cx="479.9" cy="350.8" r="3"/>
</g>
<g>
	<path class="st1" d="M464.2,291v331.7c0,5.2-4.2,9.3-9.3,9.3H93c-5.2,0-9.3-4.2-9.3-9.3V291c0-5.2,4.2-9.3,9.3-9.3h362
		C460,281.7,464.2,285.8,464.2,291z"/>
	<path class="st0" d="M454.8,631.2H93c-5.2,0-9.3-4.2-9.3-9.3V304.1h380.7v317.7C464.2,626.9,460,631.2,454.8,631.2z"/>
	<rect x="103.5" y="321.2" class="st2" width="13.2" height="13.2"/>
	<rect x="125.1" y="321.2" class="st2" width="41.2" height="13.2"/>
	<rect x="171.9" y="321.2" class="st2" width="173.6" height="13.2"/>
	<rect x="125.1" y="342.7" class="st2" width="59.7" height="13.2"/>
	<rect x="144.6" y="364.3" class="st2" width="78.5" height="13.2"/>
	<rect x="228.9" y="364.3" class="st2" width="20.3" height="13.2"/>
	<rect x="144.6" y="385.7" class="st2" width="59.7" height="13.2"/>
	<rect x="125.1" y="407.2" class="st2" width="35.3" height="13.2"/>
	<rect x="125.1" y="428.8" class="st2" width="59.7" height="13.2"/>
	<rect x="144.6" y="450.2" class="st2" width="59.7" height="13.2"/>
	<rect x="210.1" y="450.2" class="st2" width="13.2" height="13.2"/>
	<rect x="228.2" y="450.2" class="st2" width="109.3" height="13.2"/>
	<rect x="343.3" y="450.2" class="st2" width="62.1" height="13.2"/>
	<rect x="164" y="471.8" class="st2" width="46.1" height="13.2"/>
	<rect x="216" y="471.8" class="st2" width="62.8" height="13.2"/>
	<rect x="164" y="493.3" class="st2" width="59.7" height="13.2"/>
	<rect x="125.1" y="514.7" class="st2" width="49.3" height="13.2"/>
	<rect x="125.1" y="536.3" class="st2" width="35.3" height="13.2"/>
	<rect x="166.2" y="536.3" class="st2" width="61.9" height="13.2"/>
	<rect x="144.6" y="557.8" class="st2" width="59.7" height="13.2"/>
	<rect x="210.1" y="557.8" class="st2" width="29" height="13.2"/>
	<rect x="125.1" y="579.3" class="st2" width="59.7" height="13.2"/>
	<rect x="125.1" y="600.8" class="st2" width="49.3" height="13.2"/>
	<rect x="103.5" y="342.7" class="st2" width="13.2" height="13.2"/>
	<rect x="103.5" y="364.3" class="st2" width="13.2" height="13.2"/>
	<rect x="103.5" y="385.7" class="st2" width="13.2" height="13.2"/>
	<rect x="103.5" y="407.2" class="st2" width="13.2" height="13.2"/>
	<rect x="103.5" y="428.8" class="st2" width="13.2" height="13.2"/>
	<rect x="103.5" y="450.2" class="st2" width="13.2" height="13.2"/>
	<rect x="103.5" y="471.8" class="st2" width="13.2" height="13.2"/>
	<rect x="103.5" y="493.3" class="st2" width="13.2" height="13.2"/>
	<rect x="103.5" y="514.7" class="st2" width="13.2" height="13.2"/>
	<rect x="103.5" y="536.3" class="st2" width="13.2" height="13.2"/>
	<rect x="103.5" y="557.8" class="st2" width="13.2" height="13.2"/>
	<rect x="103.5" y="579.3" class="st2" width="13.2" height="13.2"/>
	<rect x="103.5" y="600.8" class="st2" width="13.2" height="13.2"/>
	<g>
		<path class="st2" d="M84.6,303.1v-13c0-4.5,3.8-8.3,8.3-8.3h362c4.5,0,8.3,3.8,8.3,8.3v13H84.6z"/>
		<path class="st0" d="M454.8,282.7c4,0,7.3,3.2,7.3,7.3v11.9H85.6V290c0-4,3.2-7.3,7.3-7.3H454.8 M454.8,280.8H93
			c-5.2,0-9.3,4.2-9.3,9.3v14h380.7v-14C464.2,284.9,460,280.8,454.8,280.8L454.8,280.8z"/>
	</g>
	<circle class="st0" cx="96" cy="292.5" r="3"/>
	<circle class="st0" cx="106.5" cy="292.5" r="3"/>
	<circle class="st0" cx="117" cy="292.5" r="3"/>
</g>
<g>
	<g>
		<g>
			<path class="st1" d="M1327.6,57.6v331.7c0,5.2-4.2,9.3-9.3,9.3H956.4c-5.2,0-9.3-4.2-9.3-9.3V57.6c0-5.2,4.2-9.3,9.3-9.3h362
				C1323.4,48.3,1327.6,52.4,1327.6,57.6z"/>
			<g>
				<g>
					<path class="st2" d="M956.4,396.9c-4.5,0-8.3-3.8-8.3-8.3V71.9h378.6v316.7c0,4.5-3.8,8.3-8.3,8.3H956.4z"/>
					<path class="st0" d="M1325.6,72.8v315.7c0,4-3.2,7.3-7.3,7.3h-362c-4,0-7.3-3.2-7.3-7.3V72.8H1325.6 M1327.6,70.9H947v317.7
						c0,5.2,4.2,9.3,9.3,9.3h362c5.2,0,9.3-4.2,9.3-9.3L1327.6,70.9L1327.6,70.9z"/>
				</g>
				<g>
					<path class="st2" d="M947.9,69.8v-13c0-4.5,3.8-8.3,8.3-8.3h362c4.5,0,8.3,3.8,8.3,8.3v13H947.9z"/>
					<path class="st0" d="M1318.2,49.4c4,0,7.3,3.2,7.3,7.3v11.9H949V56.7c0-4,3.2-7.3,7.3-7.3H1318.2 M1318.2,47.5H956.4
						c-5.2,0-9.3,4.2-9.3,9.3v14h380.7v-14C1327.6,51.7,1323.4,47.5,1318.2,47.5L1318.2,47.5z"/>
				</g>
			</g>
		</g>
		<circle class="st0" cx="959.5" cy="59.2" r="3"/>
		<circle class="st0" cx="970" cy="59.2" r="3"/>
		<circle class="st0" cx="980.5" cy="59.2" r="3"/>
	</g>
	<path class="st3" d="M1081.3,181.9v26.9l-18.2-31.4l-19.2,33.2c-5.3-10.3-8.3-21.8-8.3-34.1c0-41,33.2-74.3,74.3-74.3
		s74.3,33.2,74.3,74.3c0,1.8-0.1,3.8-0.3,5.6h-102.6L1081.3,181.9L1081.3,181.9z"/>
	<path class="st3" d="M1256.7,181.9v175.3h-175.3v-75.6h42.1l-18-31.2c1.6,0.1,3,0.1,4.5,0.1c39.2,0,71.3-30.3,74.1-68.8h72.6
		L1256.7,181.9L1256.7,181.9z"/>
	<path class="st3" d="M1081.3,245v36.7h-78.4l41-71.1C1052.1,226,1065.2,238.2,1081.3,245z"/>
	<path class="st3" d="M1105.4,250.6c-8.4-0.5-16.6-2.5-24-5.6v-36.1L1105.4,250.6z"/>
</g>
<g>
	<g>
		<g>
			<path class="st1" d="M1543.9,294.2v331.7c0,5.2-4.2,9.3-9.3,9.3h-362c-5.2,0-9.3-4.2-9.3-9.3V294.2c0-5.2,4.2-9.3,9.3-9.3h362
				C1539.7,284.8,1543.9,289,1543.9,294.2z"/>
			<g>
				<g>
					<path class="st2" d="M1172.6,634.1c-4.5,0-8.3-3.8-8.3-8.3V309h378.6v316.7c0,4.5-3.8,8.3-8.3,8.3L1172.6,634.1L1172.6,634.1z"
						/>
					<path class="st0" d="M1541.8,310v315.7c0,4-3.2,7.3-7.3,7.3h-362c-4,0-7.3-3.2-7.3-7.3V310H1541.8 M1543.9,308.1h-380.7v317.7
						c0,5.2,4.2,9.3,9.3,9.3h362c5.2,0,9.3-4.2,9.3-9.3L1543.9,308.1L1543.9,308.1z"/>
				</g>
				<g>
					<path class="st2" d="M1164.2,307v-13c0-4.5,3.8-8.3,8.3-8.3h362c4.5,0,8.3,3.8,8.3,8.3v13H1164.2z"/>
					<path class="st0" d="M1534.5,286.6c4,0,7.3,3.2,7.3,7.3v11.9h-376.5v-11.9c0-4,3.2-7.3,7.3-7.3H1534.5 M1534.5,284.7h-362
						c-5.2,0-9.3,4.2-9.3,9.3v14h380.7v-14C1543.9,288.9,1539.7,284.7,1534.5,284.7L1534.5,284.7z"/>
				</g>
			</g>
		</g>
		<circle class="st0" cx="1175.8" cy="296.4" r="3"/>
		<circle class="st0" cx="1186.2" cy="296.4" r="3"/>
		<circle class="st0" cx="1196.7" cy="296.4" r="3"/>
	</g>
	<path class="st3" d="M1297.6,419.1V446l-18.2-31.4l-19.2,33.2c-5.3-10.3-8.3-21.8-8.3-34.1c0-41,33.2-74.3,74.3-74.3
		s74.3,33.2,74.3,74.3c0,1.8-0.1,3.8-0.3,5.6h-102.6L1297.6,419.1L1297.6,419.1z"/>
	<path class="st3" d="M1472.9,419.1v175.3h-175.3v-75.6h42.1l-18-31.2c1.6,0.1,3,0.1,4.5,0.1c39.2,0,71.3-30.3,74.1-68.8h72.6
		L1472.9,419.1L1472.9,419.1z"/>
	<path class="st3" d="M1297.6,482.2v36.7h-78.4l41-71.1C1268.2,463.2,1281.5,475.4,1297.6,482.2z"/>
	<path class="st3" d="M1321.7,487.8c-8.4-0.5-16.6-2.5-24-5.6v-36.1L1321.7,487.8z"/>
</g>
<linearGradient id="SVGID_1_" gradientUnits="userSpaceOnUse" x1="1250" y1="485.7986" x2="1250" y2="-236" gradientTransform="matrix(1 0 0 -1 0 484)">
	<stop  offset="0" style="stop-color:#F1F0F0;stop-opacity:0"/>
	<stop  offset="0.393" style="stop-color:#F1F0F0;stop-opacity:0"/>
	<stop  offset="0.7015" style="stop-color:#F1F0F0;stop-opacity:0.4776"/>
	<stop  offset="0.9154" style="stop-color:#F1F0F0"/>
</linearGradient>
<rect y="-1.8" class="st4" width="2500" height="721.8"/>
</svg>
