<?xml version="1.0" encoding="utf-8"?>
<!-- Generator: Adobe Illustrator 21.0.0, SVG Export Plug-In . SVG Version: 6.00 Build 0)  -->
<svg version="1.1" id="Capa_1" xmlns="http://www.w3.org/2000/svg" xmlns:xlink="http://www.w3.org/1999/xlink" x="0px" y="0px"
	 viewBox="0 0 612 792" style="enable-background:new 0 0 612 792;" xml:space="preserve">
<style type="text/css">
	.st0{fill:none;}
	.st1{fill:#99694C;}
	.st2{font-family:'BrandonGrotesque-Bold';}
	.st3{font-size:10px;}
	.st4{font-family:'BrandonGrotesque-Regular';}
	.st5{fill:none;stroke:#99694C;stroke-width:1.8426;stroke-linecap:round;stroke-miterlimit:10;}
	.st6{fill:none;stroke:#99694C;stroke-width:4;stroke-linecap:round;stroke-linejoin:round;stroke-miterlimit:10;}
	.st7{font-family:'BrandonGrotesque-Medium';}
	.st8{font-size:34.4958px;}
	.st9{letter-spacing:-1;}
	.st10{font-size:11.2819px;}
	.st11{fill:#EFEEED;}
	.st12{font-family:'BrandonGrotesque-Black';}
	.st13{font-size:40px;}
	.st14{letter-spacing:8;}
	.st15{font-family:'BrandonGrotesque-MediumItalic';}
	.st16{font-size:8px;}
	.st17{fill:#636466;}
	.st18{font-family:'BrandonGrotesque-Light';}
	.st19{fill:none;stroke:#99694C;stroke-miterlimit:10;}
	.st20{fill:none;stroke:#99694C;stroke-width:1.5;stroke-miterlimit:10;}
	.st21{font-size:15px;}
	.st22{fill:none;stroke:#636466;stroke-width:0.25;stroke-miterlimit:10;}
</style>
<g>
	<g>
		<rect x="66.3" y="477.8" class="st0" width="59.6" height="15"/>
		<text transform="matrix(1 0 0 1 93.7341 484.7902)" class="st1 st2 st3">Contact</text>
	</g>
	<g>
		<rect x="142" y="477.5" class="st0" width="100.7" height="41.3"/>
		<text transform="matrix(1 0 0 1 142.0173 484.508)"><tspan x="0" y="0" class="st1 st4 st3">juanmotta.me</tspan><tspan x="0" y="15" class="st1 st4 st3">(973) 330-6611</tspan><tspan x="0" y="30.1" class="st1 st4 st3">juanjmotta@gmail.com</tspan></text>
	</g>
	<line class="st5" x1="133.1" y1="475.4" x2="133.1" y2="517.9"/>
</g>
<polyline class="st6" points="50,430.5 50,742 271.5,742 "/>
<polyline class="st6" points="50,363.9 50,50 271.5,50 "/>
<g>
	<g>
		<g>
			<text transform="matrix(1 0 0 1 40.1372 409.9165)"><tspan x="0" y="0" class="st1 st7 st8">J</tspan><tspan x="14.2" y="0" class="st1 st7 st8">U</tspan><tspan x="38.8" y="0" class="st1 st7 st8">AN J M</tspan><tspan x="147.7" y="0" class="st1 st7 st8">O</tspan><tspan x="175.4" y="0" class="st1 st7 st8">T</tspan><tspan x="192.9" y="0" class="st1 st7 st8 st9">T</tspan><tspan x="208.5" y="0" class="st1 st7 st8">A</tspan></text>
		</g>
	</g>
	<g>
		<path class="st1" d="M95.1,371.5c-0.3,0-0.6-0.1-0.8-0.3c-0.5-0.5-0.5-1.2,0-1.7l3.1-3.1c0.5-0.5,1.2-0.5,1.7,0
			c0.5,0.5,0.5,1.2,0,1.7l-3.1,3.1C95.7,371.4,95.4,371.5,95.1,371.5"/>
		<path class="st1" d="M155.4,371.7L155.4,371.7c-0.4,0-0.7-0.2-0.9-0.4l-29.3-28.7l-19.1,18.9c-0.5,0.5-1.2,0.5-1.7,0
			c-0.5-0.5-0.5-1.2,0-1.7l19.9-19.8c0.2-0.2,0.5-0.4,0.8-0.3c0.3,0,0.6,0.1,0.8,0.4l29.3,28.6l2.3-2.2c0.4-0.5,1.2-0.6,1.7-0.1
			c0.5,0.4,0.6,1.2,0.1,1.7l-3.1,3.2C156.1,371.5,155.8,371.7,155.4,371.7"/>
		<path class="st1" d="M215.7,371.6c-0.3,0-0.6-0.1-0.8-0.3l-29.3-29.2L166,361.5c-0.5,0.5-1.2,0.5-1.7,0c-0.5-0.5-0.5-1.2,0-1.7
			l20.4-20.3c0.5-0.5,1.2-0.5,1.7,0l30.2,30c0.5,0.5,0.5,1.2,0,1.7C216.3,371.4,216,371.6,215.7,371.6"/>
		<path class="st1" d="M135.5,344.5c-0.3,0-0.6-0.1-0.8-0.3c-0.5-0.5-0.5-1.2,0-1.7l3-3c0.5-0.5,1.2-0.5,1.7,0
			c0.5,0.5,0.5,1.2,0,1.7l-3,3C136.1,344.4,135.8,344.5,135.5,344.5"/>
		<path class="st1" d="M108.4,371.5c-0.3,0-0.6-0.1-0.8-0.3l-13.3-13.3c-0.5-0.5-0.5-1.2,0-1.7c0.5-0.5,1.2-0.5,1.7,0l12.5,12.5
			l19.1-19.1c0.5-0.5,1.2-0.5,1.7,0c0.5,0.5,0.5,1.2,0,1.7l-19.9,19.9C109,371.4,108.7,371.5,108.4,371.5"/>
		<path class="st1" d="M195.3,344.5c-0.3,0-0.6-0.1-0.8-0.3c-0.5-0.5-0.5-1.2,0-1.7l3-3c0.5-0.5,1.2-0.5,1.7,0
			c0.5,0.5,0.5,1.2,0,1.7l-3,3C195.9,344.4,195.6,344.5,195.3,344.5"/>
		<path class="st1" d="M168.3,371.5c-0.3,0-0.6-0.1-0.8-0.3l-13.3-13.3c-0.5-0.5-0.5-1.2,0-1.7c0.5-0.5,1.2-0.5,1.7,0l12.5,12.5
			l19.1-19.1c0.5-0.5,1.2-0.5,1.7,0c0.5,0.5,0.5,1.2,0,1.7l-19.9,19.9C168.9,371.4,168.6,371.5,168.3,371.5"/>
	</g>
	<text transform="matrix(1 0 0 1 90.6352 434.0728)" class="st1 st7 st10">designer | developer</text>
</g>
<g>
	<g>
		<g>
			<text transform="matrix(1 0 0 1 290.6127 189.7709)"><tspan x="0" y="0" class="st11 st12 st13 st14">EDU-</tspan><tspan x="0" y="48" class="st11 st12 st13 st14">CATION</tspan></text>
		</g>
		<rect x="312.8" y="175.4" class="st0" width="249" height="98.5"/>
		<text transform="matrix(1 0 0 1 312.8439 182.2416)"><tspan x="0" y="0" class="st1 st15 st16">2013 - January 2017 (anticipated) </tspan><tspan x="0" y="14" class="st17 st2 st3">Ramapo College of new jersey | </tspan><tspan x="171.5" y="14" class="st17 st18 st3">Mawah, NJ </tspan><tspan x="0" y="28" class="st17 st4 st3">Bachelor of Arts: Major Communication Arts, Concentration in  </tspan><tspan x="0" y="42" class="st17 st4 st3">Visual Communication Design | Minor Computer Science</tspan><tspan x="0" y="60" class="st1 st15 st16">2009 - 2013 </tspan><tspan x="0" y="74" class="st17 st2 st3">Bergen Technical Highschool | </tspan><tspan x="171.5" y="74" class="st17 st18 st3">Teterboro, NJ </tspan><tspan x="0" y="88" class="st17 st4 st3">Major: Commercial Art &amp; Graphic Design</tspan></text>
	</g>
	<g>
		<g>
			<text transform="matrix(1 0 0 1 290.9077 69.5766)" class="st11 st12 st13 st14">BIO</text>
		</g>
		<rect x="312.4" y="55.5" class="st0" width="250.6" height="76.3"/>
		<text transform="matrix(1 0 0 1 312.446 63.9713)"><tspan x="0" y="0" class="st1 st15 st3">Juan Motta</tspan><tspan x="44.8" y="0" class="st17 st7 st3">. is a </tspan><tspan x="64.4" y="0" class="st1 st15 st3">Designer</tspan><tspan x="98.5" y="0" class="st17 st7 st3">, </tspan><tspan x="103.3" y="0" class="st1 st15 st3">Developer</tspan><tspan x="141.7" y="0" class="st17 st7 st3">, and an overall </tspan><tspan x="203.6" y="0" class="st1 st15 st3">Creator</tspan><tspan x="233.5" y="0" class="st17 st7 st3">.  </tspan><tspan x="0" y="16" class="st17 st7 st3">Asside from many internships and positions, he has been  </tspan><tspan x="0" y="32" class="st17 st7 st3">freelace designing and developing since he was 16. Specializing  </tspan><tspan x="0" y="48" class="st17 st7 st3">in outside-the-box thinking, </tspan><tspan x="114.9" y="48" class="st1 st15 st3">Juan </tspan><tspan x="135.6" y="48" class="st17 st7 st3">enjoys being challenged to  </tspan><tspan x="0" y="64" class="st17 st7 st3">find solutions to difficult problems.</tspan></text>
	</g>
	<g>
		<g>
			<rect x="290.6" y="304" class="st0" width="152.9" height="49.6"/>
			<text transform="matrix(1 0 0 1 290.6127 337.9813)" class="st11 st12 st13 st14">work</text>
		</g>
		<rect x="310.6" y="324.8" class="st0" width="226.6" height="251.1"/>
		<text transform="matrix(1 0 0 1 310.6169 331.5818)"><tspan x="0" y="0" class="st1 st15 st16">2011-present </tspan><tspan x="0" y="14" class="st17 st2 st3">Freelance | </tspan><tspan x="62.4" y="14" class="st17 st18 st3">Designer / Developer</tspan><tspan x="0" y="32" class="st1 st15 st16">2016 </tspan><tspan x="0" y="46" class="st17 st2 st3">HElium inc. | </tspan><tspan x="66.1" y="46" class="st17 st18 st3">Chief Design Officer </tspan><tspan x="0" y="60" class="st19 st7 st3">• </tspan><tspan x="5.9" y="60" class="st17 st4 st3">Branding</tspan><tspan x="41.1" y="60" class="st17 st4 st3"> </tspan><tspan x="43.7" y="60" class="st19 st7 st3">• </tspan><tspan x="49.6" y="60" class="st17 st4 st3">Web design</tspan><tspan x="94.9" y="60" class="st17 st4 st3"> </tspan><tspan x="97.5" y="60" class="st19 st7 st3">• </tspan><tspan x="103.4" y="60" class="st17 st4 st3">App UI/UX design</tspan><tspan x="174.9" y="60" class="st17 st4 st3"> </tspan><tspan x="177.5" y="60" class="st19 st7 st3">• </tspan><tspan x="183.4" y="60" class="st17 st4 st3">Animation</tspan><tspan x="224.2" y="60" class="st17 st4 st3"> </tspan><tspan x="226.8" y="60" class="st17 st4 st3"> </tspan><tspan x="0" y="74" class="st19 st7 st3">• </tspan><tspan x="5.9" y="74" class="st17 st4 st3">Front-end development</tspan><tspan x="0" y="92" class="st1 st15 st16">2015-2016 </tspan><tspan x="0" y="106" class="st17 st2 st3">SGS int. | </tspan><tspan x="44.6" y="106" class="st17 st18 st3">Production Artist / Designer </tspan><tspan x="0" y="120" class="st19 st7 st3">•</tspan><tspan x="3.7" y="120" class="st17 st4 st3"> CVShealth’s brand refresh</tspan><tspan x="108.9" y="120" class="st17 st4 st3"> </tspan><tspan x="111.5" y="120" class="st19 st7 st3">•</tspan><tspan x="115.2" y="120" class="st17 st4 st3"> Packaging design</tspan><tspan x="183.8" y="120" class="st17 st4 st3"> </tspan><tspan x="186.4" y="120" class="st17 st4 st3"> </tspan><tspan x="0" y="134" class="st19 st7 st3">• </tspan><tspan x="5.9" y="134" class="st17 st4 st3">Custom software development</tspan><tspan x="0" y="152" class="st1 st15 st16">2013 - 2014 </tspan><tspan x="0" y="166" class="st17 st2 st3">DMR Architects | </tspan><tspan x="90.3" y="166" class="st17 st18 st3">Intern  </tspan><tspan x="0" y="180" class="st19 st7 st3">• </tspan><tspan x="5.9" y="180" class="st17 st4 st3">Graphics for email marketing</tspan><tspan x="118.6" y="180" class="st17 st4 st3"> </tspan><tspan x="121.2" y="180" class="st19 st7 st3">•</tspan><tspan x="124.9" y="180" class="st17 st4 st3"> Website redesign </tspan><tspan x="0" y="194" class="st19 st7 st3">• </tspan><tspan x="5.9" y="194" class="st17 st4 st3">General office organization</tspan><tspan x="110.4" y="194" class="st17 st4 st3"> </tspan><tspan x="113" y="194" class="st19 st7 st3">• </tspan><tspan x="118.9" y="194" class="st17 st4 st3">Customer relation tasks.</tspan><tspan x="0" y="212" class="st1 st15 st16">2012- 2013 </tspan><tspan x="0" y="226" class="st17 st2 st3">jackal / lf beauty | </tspan><tspan x="99.7" y="226" class="st17 st18 st3">Intern  </tspan><tspan x="0" y="240" class="st19 st7 st3">• </tspan><tspan x="5.9" y="240" class="st17 st4 st3">Packaging design mockups </tspan><tspan x="111.2" y="240" class="st19 st7 st3">• </tspan><tspan x="117.1" y="240" class="st17 st4 st3">Pattern design</tspan></text>
	</g>
	<g>
		<g>
			<g>
				<rect x="290.6" y="605.9" class="st0" width="248" height="37.7"/>
				<text transform="matrix(1 0 0 1 290.6127 633.882)" class="st11 st12 st13 st14">skills</text>
			</g>
			<text transform="matrix(1 0 0 1 312.344 626.6232)"><tspan x="0" y="0" class="st1 st15 st16">development </tspan><tspan x="0" y="14" class="st19 st7 st3">•</tspan><tspan x="3.7" y="14" class="st17 st7 st3"> c++</tspan><tspan x="0" y="30" class="st19 st7 st3">•</tspan><tspan x="3.7" y="30" class="st17 st7 st3"> html </tspan><tspan x="34.4" y="30" class="st17 st7 st3">(</tspan><tspan x="38.3" y="30" class="st17 st7 st3">jad</tspan><tspan x="56.4" y="30" class="st17 st7 st3">e</tspan><tspan x="62.8" y="30" class="st17 st7 st3">)</tspan><tspan x="0" y="46" class="st19 st7 st3">•</tspan><tspan x="3.7" y="46" class="st17 st7 st3"> css </tspan><tspan x="25.8" y="46" class="st17 st7 st3">(</tspan><tspan x="29.7" y="46" class="st17 st7 st3">sass / scs</tspan><tspan x="77.9" y="46" class="st17 st7 st3">s</tspan><tspan x="83.8" y="46" class="st17 st7 st3">)</tspan><tspan x="0" y="62" class="st19 st7 st3">•</tspan><tspan x="3.7" y="63.5" class="st20 st7 st21"> </tspan><tspan x="7" y="62" class="st17 st7 st3">javascript </tspan><tspan x="66" y="62" class="st17 st7 st3">(</tspan><tspan x="69.9" y="62" class="st17 st7 st3">jquer</tspan><tspan x="101.9" y="62" class="st17 st7 st3">y</tspan><tspan x="108.1" y="62" class="st17 st7 st3">)</tspan><tspan x="0" y="78" class="st19 st7 st3">•</tspan><tspan x="3.7" y="78" class="st17 st7 st3"> ruby</tspan><tspan x="0" y="94" class="st19 st7 st3">•</tspan><tspan x="3.7" y="94" class="st17 st7 st3"> git</tspan><tspan x="0" y="110" class="st19 st7 st3">•</tspan><tspan x="3.7" y="110" class="st17 st7 st3"> swift</tspan><tspan x="0" y="126" class="st19 st7 st3">•</tspan><tspan x="3.7" y="126" class="st17 st7 st3"> PHP</tspan></text>
			<g>
				<text transform="matrix(1 0 0 1 438.4402 626.6232)"><tspan x="0" y="0" class="st1 st15 st16">SOFTWARE</tspan><tspan x="38.5" y="0" class="st17 st7 st3"> </tspan></text>
				<g>
					<g>
						<path class="st17" d="M442.1,637.4c0.4-0.1,0.9-0.1,1.6-0.1c0.8,0,1.3,0.2,1.7,0.5c0.3,0.3,0.6,0.7,0.6,1.3
							c0,0.6-0.2,1-0.5,1.3c-0.4,0.4-1.1,0.6-1.8,0.6c-0.2,0-0.4,0-0.5,0v2.2h-1.1V637.4z M443.2,640.1c0.1,0,0.3,0,0.5,0
							c0.8,0,1.3-0.4,1.3-1.1c0-0.6-0.4-1-1.2-1c-0.3,0-0.5,0-0.6,0.1V640.1z"/>
						<path class="st17" d="M446.4,642.1c0.2,0.1,0.7,0.3,1.1,0.3c0.5,0,0.7-0.2,0.7-0.5c0-0.3-0.2-0.4-0.7-0.6
							c-0.8-0.3-1.2-0.7-1.2-1.2c0-0.7,0.6-1.3,1.6-1.3c0.5,0,0.9,0.1,1.1,0.3l-0.2,0.8c-0.2-0.1-0.5-0.2-0.9-0.2
							c-0.4,0-0.6,0.2-0.6,0.4c0,0.3,0.2,0.4,0.7,0.6c0.8,0.3,1.1,0.7,1.1,1.3c0,0.8-0.6,1.3-1.7,1.3c-0.5,0-1-0.1-1.3-0.3
							L446.4,642.1z"/>
						<path class="st17" d="M438.4,633.4v13.8h14.1v-13.8H438.4z M452,646.6h-13V634h13V646.6z"/>
					</g>
					<g>
						<g>
							<path class="st17" d="M491.8,641.5l-0.5,1.7h-1.1l1.9-5.9h1.4l1.9,5.9h-1.2l-0.5-1.7H491.8z M493.5,640.6l-0.5-1.5
								c-0.1-0.4-0.2-0.8-0.3-1.1h0c-0.1,0.3-0.2,0.8-0.3,1.1l-0.5,1.5H493.5z"/>
							<path class="st17" d="M496.8,641.3c0,0.8,0.6,1.1,1.3,1.1c0.5,0,0.9-0.1,1.2-0.2l0.2,0.7c-0.4,0.1-0.9,0.3-1.5,0.3
								c-1.4,0-2.2-0.9-2.2-2.2c0-1.2,0.7-2.3,2.1-2.3c1.4,0,1.9,1.1,1.9,2.1c0,0.2,0,0.4,0,0.5H496.8z M498.7,640.5
								c0-0.4-0.2-1-0.9-1c-0.7,0-1,0.6-1,1H498.7z"/>
						</g>
						<path class="st17" d="M488,633.4v13.8H502v-13.8H488z M501.5,646.6h-13V634h13V646.6z"/>
					</g>
					<g>
						<g>
							<path class="st17" d="M508.2,637.3c0.4-0.1,0.9-0.1,1.7-0.1c0.8,0,1.4,0.2,1.8,0.5c0.4,0.3,0.6,0.8,0.6,1.3
								c0,0.6-0.2,1-0.5,1.3c-0.4,0.4-1.1,0.6-1.9,0.6c-0.2,0-0.4,0-0.5,0v2.2h-1.1V637.3z M509.3,640.1c0.1,0,0.3,0,0.5,0
								c0.8,0,1.3-0.4,1.3-1.1c0-0.7-0.5-1-1.2-1c-0.3,0-0.5,0-0.6,0.1V640.1z"/>
							<path class="st17" d="M513,640.3c0-0.6,0-1,0-1.4h0.9l0,0.8h0c0.2-0.6,0.7-0.9,1.2-0.9c0.1,0,0.2,0,0.3,0v1
								c-0.1,0-0.2,0-0.3,0c-0.5,0-0.9,0.3-1,0.8c0,0.1,0,0.2,0,0.3v2.2H513V640.3z"/>
						</g>
						<path class="st17" d="M504.5,633.4v13.8h14.1v-13.8H504.5z M518.1,646.6h-13V634h13V646.6z"/>
					</g>
					<g>
						<g>
							<path class="st17" d="M476.7,637.3v5.8h-1.1v-5.8H476.7z"/>
							<path class="st17" d="M481.3,637v4.9c0,0.4,0,0.9,0,1.2h-0.9l0-0.7h0c-0.2,0.5-0.7,0.8-1.3,0.8c-0.9,0-1.6-0.9-1.6-2.1
								c0-1.4,0.8-2.2,1.7-2.2c0.5,0,0.9,0.2,1.1,0.6h0V637H481.3z M480.3,640.6c0-0.1,0-0.2,0-0.3c-0.1-0.4-0.4-0.8-0.8-0.8
								c-0.6,0-1,0.6-1,1.4c0,0.8,0.3,1.3,1,1.3c0.4,0,0.7-0.3,0.8-0.8c0-0.1,0-0.2,0-0.3V640.6z"/>
						</g>
						<g>
							<path class="st17" d="M471.5,633.4v13.8h14.1v-13.8H471.5z M485,646.6h-13V634h13V646.6z"/>
						</g>
					</g>
					<g>
						<path class="st17" d="M460.1,641.5l-0.5,1.6h-1.1l1.9-5.8h1.4l1.9,5.8h-1.1l-0.5-1.6H460.1z M461.7,640.7l-0.5-1.4
							c-0.1-0.4-0.2-0.8-0.3-1.1h0c-0.1,0.3-0.2,0.7-0.3,1.1l-0.4,1.4H461.7z"/>
						<path class="st17" d="M465.1,637.7c0,0.3-0.2,0.6-0.6,0.6c-0.4,0-0.6-0.3-0.6-0.6c0-0.3,0.2-0.6,0.6-0.6
							C464.9,637.2,465.1,637.4,465.1,637.7z M464,643.1v-4.2h1.1v4.2H464z"/>
						<path class="st17" d="M454.9,633.4v13.8H469v-13.8H454.9z M468.5,646.6h-13V634h13V646.6z"/>
					</g>
				</g>
			</g>
		</g>
	</g>
</g>
<g>
	<path class="st17" d="M442.2,655.6v3.1c0,1.1,0.4,1.5,1.1,1.5c0.7,0,1.1-0.5,1.1-1.5v-3.1h1v3.1c0,1.7-0.9,2.4-2.2,2.4
		c-1.2,0-2.1-0.7-2.1-2.4v-3.1H442.2z"/>
	<path class="st17" d="M447.1,657.1l0.5,0.7c0.1,0.2,0.2,0.4,0.4,0.6h0c0.1-0.2,0.2-0.4,0.3-0.6l0.4-0.7h1.1l-1.3,1.9l1.3,2h-1.1
		l-0.5-0.8c-0.1-0.2-0.2-0.4-0.4-0.6h0c-0.1,0.2-0.2,0.4-0.4,0.6L447,661h-1.1l1.4-2l-1.3-1.9H447.1z"/>
</g>
<path class="st17" d="M438.4,651.4v13.8h14.1v-13.8H438.4z M452,664.6h-13V652h13V664.6z"/>
<g>
	<g>
		<path class="st17" d="M462,652.7l3.6,0.4l2.5,3.4l-6.1,7.1l-6.1-7.1l2.5-3.4L462,652.7 M462,651.9l-4,0.4l-3,4.1l7,8.2l7-8.2
			l-3-4.1L462,651.9L462,651.9z"/>
	</g>
	<line class="st22" x1="455.1" y1="656.5" x2="468.8" y2="656.4"/>
	<polyline class="st22" points="458,652.5 457.9,656.5 462,663.5 	"/>
	<polyline class="st22" points="466,652.5 466.1,656.5 462,663.5 	"/>
	<polyline class="st22" points="466.1,656.5 462,652.1 457.9,656.5 	"/>
</g>
</svg>
