<?xml version="1.0" encoding="utf-8"?>
<!-- Generator: Adobe Illustrator 19.2.1, SVG Export Plug-In . SVG Version: 6.00 Build 0)  -->
<svg version="1.1" id="Layer_1" xmlns="http://www.w3.org/2000/svg" xmlns:xlink="http://www.w3.org/1999/xlink" x="0px" y="0px"
	 viewBox="0 0 1425.2 720" style="enable-background:new 0 0 1425.2 720;" xml:space="preserve">
<style type="text/css">
	.st0{fill:#EDE6E0;stroke:#F5F0ED;stroke-miterlimit:10;}
	.st1{fill:#DDCCC0;}
	.st2{fill:none;stroke:#F5F0ED;stroke-width:10;stroke-miterlimit:10;}
	.st3{fill:#EDE6E0;}
	.st4{fill:#DDCCC0;stroke:#F5F0ED;stroke-width:1.561;stroke-miterlimit:10;}
	.st5{fill:url(#SVGID_1_);}
</style>
<rect class="st0" width="1425.2" height="720"/>
<rect class="st1" width="1425.2" height="720"/>
<g>
	<g>
		<path class="st2" d="M431.7,293.5V549c0,4-3.2,7.2-7.2,7.2H145.7c-4,0-7.2-3.2-7.2-7.2V293.5c0-4,3.2-7.2,7.2-7.2h278.8
			C428.4,286.3,431.7,289.5,431.7,293.5z"/>
		<g>
			<path class="st1" d="M424.5,555.6H145.7c-4,0-7.2-3.2-7.2-7.2V303.7h293.2v244.7C431.7,552.4,428.4,555.6,424.5,555.6z"/>
			<rect x="153.9" y="316.9" class="st3" width="10.2" height="10.2"/>
			<rect x="170.4" y="316.9" class="st3" width="31.7" height="10.2"/>
			<rect x="206.6" y="316.9" class="st3" width="133.7" height="10.2"/>
			<rect x="170.4" y="333.4" class="st3" width="46" height="10.2"/>
			<rect x="185.4" y="350" class="st3" width="60.5" height="10.2"/>
			<rect x="250.4" y="350" class="st3" width="15.6" height="10.2"/>
			<rect x="185.4" y="366.6" class="st3" width="46" height="10.2"/>
			<rect x="170.4" y="383.1" class="st3" width="27.2" height="10.2"/>
			<rect x="170.4" y="399.7" class="st3" width="46" height="10.2"/>
			<rect x="185.4" y="416.3" class="st3" width="46" height="10.2"/>
			<rect x="235.9" y="416.3" class="st3" width="10.2" height="10.2"/>
			<rect x="249.8" y="416.3" class="st3" width="84.2" height="10.2"/>
			<rect x="338.5" y="416.3" class="st3" width="47.8" height="10.2"/>
			<rect x="200.4" y="432.8" class="st3" width="35.5" height="10.2"/>
			<rect x="240.4" y="432.8" class="st3" width="48.4" height="10.2"/>
			<rect x="200.4" y="449.4" class="st3" width="46" height="10.2"/>
			<rect x="170.4" y="466" class="st3" width="38" height="10.2"/>
			<rect x="170.4" y="482.5" class="st3" width="27.2" height="10.2"/>
			<rect x="202.1" y="482.5" class="st3" width="47.7" height="10.2"/>
			<rect x="185.4" y="499.1" class="st3" width="46" height="10.2"/>
			<rect x="235.9" y="499.1" class="st3" width="22.3" height="10.2"/>
			<rect x="170.4" y="515.6" class="st3" width="46" height="10.2"/>
			<rect x="170.4" y="532.2" class="st3" width="38" height="10.2"/>
			<rect x="153.9" y="333.4" class="st3" width="10.2" height="10.2"/>
			<rect x="153.9" y="350" class="st3" width="10.2" height="10.2"/>
			<rect x="153.9" y="366.6" class="st3" width="10.2" height="10.2"/>
			<rect x="153.9" y="383.1" class="st3" width="10.2" height="10.2"/>
			<rect x="153.9" y="399.7" class="st3" width="10.2" height="10.2"/>
			<rect x="153.9" y="416.3" class="st3" width="10.2" height="10.2"/>
			<rect x="153.9" y="432.8" class="st3" width="10.2" height="10.2"/>
			<rect x="153.9" y="449.4" class="st3" width="10.2" height="10.2"/>
			<rect x="153.9" y="466" class="st3" width="10.2" height="10.2"/>
			<rect x="153.9" y="482.5" class="st3" width="10.2" height="10.2"/>
			<rect x="153.9" y="499.1" class="st3" width="10.2" height="10.2"/>
			<rect x="153.9" y="515.6" class="st3" width="10.2" height="10.2"/>
			<rect x="153.9" y="532.2" class="st3" width="10.2" height="10.2"/>
			<g>
				<path class="st3" d="M139.3,302.9v-10c0-3.5,2.9-6.4,6.4-6.4h278.8c3.5,0,6.4,2.9,6.4,6.4v10H139.3z"/>
				<path class="st1" d="M424.5,287.2c3.1,0,5.6,2.5,5.6,5.6v9.2h-290v-9.2c0-3.1,2.5-5.6,5.6-5.6H424.5 M424.5,285.7H145.7
					c-4,0-7.2,3.2-7.2,7.2v10.8h293.2v-10.8C431.7,288.9,428.4,285.7,424.5,285.7L424.5,285.7z"/>
			</g>
		</g>
	</g>
	<circle class="st1" cx="148.1" cy="294.7" r="2.3"/>
	<circle class="st1" cx="156.2" cy="294.7" r="2.3"/>
	<circle class="st1" cx="164.3" cy="294.7" r="2.3"/>
</g>
<g>
	<path class="st2" d="M1396.7,177.6v255.5c0,4-3.2,7.2-7.2,7.2h-278.8c-4,0-7.2-3.2-7.2-7.2V177.6c0-4,3.2-7.2,7.2-7.2h278.8
		C1393.5,170.4,1396.7,173.6,1396.7,177.6z"/>
	<path class="st1" d="M1389.5,439.5h-278.8c-4,0-7.2-3.2-7.2-7.2V187.6h293.2v244.7C1396.7,436.3,1393.5,439.5,1389.5,439.5z"/>
	<rect x="1118.9" y="200.8" class="st3" width="10.2" height="10.2"/>
	<rect x="1135.5" y="200.8" class="st3" width="31.7" height="10.2"/>
	<rect x="1171.7" y="200.8" class="st3" width="133.7" height="10.2"/>
	<rect x="1135.5" y="217.4" class="st3" width="46" height="10.2"/>
	<rect x="1150.5" y="234" class="st3" width="60.5" height="10.2"/>
	<rect x="1215.5" y="234" class="st3" width="15.6" height="10.2"/>
	<rect x="1150.5" y="250.5" class="st3" width="46" height="10.2"/>
	<rect x="1135.5" y="267.1" class="st3" width="27.2" height="10.2"/>
	<rect x="1135.5" y="283.6" class="st3" width="46" height="10.2"/>
	<rect x="1150.5" y="300.2" class="st3" width="46" height="10.2"/>
	<rect x="1201" y="300.2" class="st3" width="10.2" height="10.2"/>
	<rect x="1214.9" y="300.2" class="st3" width="84.2" height="10.2"/>
	<rect x="1303.6" y="300.2" class="st3" width="47.8" height="10.2"/>
	<rect x="1165.5" y="316.8" class="st3" width="35.5" height="10.2"/>
	<rect x="1205.5" y="316.8" class="st3" width="48.4" height="10.2"/>
	<rect x="1165.5" y="333.3" class="st3" width="46" height="10.2"/>
	<rect x="1135.5" y="349.9" class="st3" width="38" height="10.2"/>
	<rect x="1135.5" y="366.5" class="st3" width="27.2" height="10.2"/>
	<rect x="1167.2" y="366.5" class="st3" width="47.7" height="10.2"/>
	<rect x="1150.5" y="383" class="st3" width="46" height="10.2"/>
	<rect x="1201" y="383" class="st3" width="22.3" height="10.2"/>
	<rect x="1135.5" y="399.6" class="st3" width="46" height="10.2"/>
	<rect x="1135.5" y="416.2" class="st3" width="38" height="10.2"/>
	<rect x="1118.9" y="217.4" class="st3" width="10.2" height="10.2"/>
	<rect x="1118.9" y="234" class="st3" width="10.2" height="10.2"/>
	<rect x="1118.9" y="250.5" class="st3" width="10.2" height="10.2"/>
	<rect x="1118.9" y="267.1" class="st3" width="10.2" height="10.2"/>
	<rect x="1118.9" y="283.6" class="st3" width="10.2" height="10.2"/>
	<rect x="1118.9" y="300.2" class="st3" width="10.2" height="10.2"/>
	<rect x="1118.9" y="316.8" class="st3" width="10.2" height="10.2"/>
	<rect x="1118.9" y="333.3" class="st3" width="10.2" height="10.2"/>
	<rect x="1118.9" y="349.9" class="st3" width="10.2" height="10.2"/>
	<rect x="1118.9" y="366.5" class="st3" width="10.2" height="10.2"/>
	<rect x="1118.9" y="383" class="st3" width="10.2" height="10.2"/>
	<rect x="1118.9" y="399.6" class="st3" width="10.2" height="10.2"/>
	<rect x="1118.9" y="416.2" class="st3" width="10.2" height="10.2"/>
	<g>
		<path class="st3" d="M1104.4,186.8v-10c0-3.5,2.9-6.4,6.4-6.4h278.8c3.5,0,6.4,2.9,6.4,6.4v10H1104.4z"/>
		<path class="st1" d="M1389.5,171.2c3.1,0,5.6,2.5,5.6,5.6v9.2h-290v-9.2c0-3.1,2.5-5.6,5.6-5.6H1389.5 M1389.5,169.6h-278.8
			c-4,0-7.2,3.2-7.2,7.2v10.8h293.2v-10.8C1396.7,172.9,1393.5,169.6,1389.5,169.6L1389.5,169.6z"/>
	</g>
	<circle class="st1" cx="1113.1" cy="178.6" r="2.3"/>
	<circle class="st1" cx="1121.2" cy="178.6" r="2.3"/>
	<circle class="st1" cx="1129.3" cy="178.6" r="2.3"/>
</g>
<g>
	<path class="st2" d="M1118,56.1v255.5c0,4-3.2,7.2-7.2,7.2H832.1c-4,0-7.2-3.2-7.2-7.2V56.1c0-4,3.2-7.2,7.2-7.2h278.8
		C1114.8,48.9,1118,52.2,1118,56.1z"/>
	<path class="st1" d="M1110.8,318.1H832.1c-4,0-7.2-3.2-7.2-7.2V66.2H1118v244.7C1118,314.9,1114.8,318.1,1110.8,318.1z"/>
	<rect x="840.2" y="79.4" class="st3" width="10.2" height="10.2"/>
	<rect x="856.8" y="79.4" class="st3" width="31.7" height="10.2"/>
	<rect x="893" y="79.4" class="st3" width="133.7" height="10.2"/>
	<rect x="856.8" y="96" class="st3" width="46" height="10.2"/>
	<rect x="871.8" y="112.5" class="st3" width="60.5" height="10.2"/>
	<rect x="936.8" y="112.5" class="st3" width="15.6" height="10.2"/>
	<rect x="871.8" y="129.1" class="st3" width="46" height="10.2"/>
	<rect x="856.8" y="145.7" class="st3" width="27.2" height="10.2"/>
	<rect x="856.8" y="162.2" class="st3" width="46" height="10.2"/>
	<rect x="871.8" y="178.8" class="st3" width="46" height="10.2"/>
	<rect x="922.3" y="178.8" class="st3" width="10.2" height="10.2"/>
	<rect x="936.2" y="178.8" class="st3" width="84.2" height="10.2"/>
	<rect x="1024.9" y="178.8" class="st3" width="47.8" height="10.2"/>
	<rect x="886.8" y="195.4" class="st3" width="35.5" height="10.2"/>
	<rect x="926.8" y="195.4" class="st3" width="48.4" height="10.2"/>
	<rect x="886.8" y="211.9" class="st3" width="46" height="10.2"/>
	<rect x="856.8" y="228.5" class="st3" width="38" height="10.2"/>
	<rect x="856.8" y="245.1" class="st3" width="27.2" height="10.2"/>
	<rect x="888.5" y="245.1" class="st3" width="47.7" height="10.2"/>
	<rect x="871.8" y="261.6" class="st3" width="46" height="10.2"/>
	<rect x="922.3" y="261.6" class="st3" width="22.3" height="10.2"/>
	<rect x="856.8" y="278.2" class="st3" width="46" height="10.2"/>
	<rect x="856.8" y="294.8" class="st3" width="38" height="10.2"/>
	<rect x="840.2" y="96" class="st3" width="10.2" height="10.2"/>
	<rect x="840.2" y="112.5" class="st3" width="10.2" height="10.2"/>
	<rect x="840.2" y="129.1" class="st3" width="10.2" height="10.2"/>
	<rect x="840.2" y="145.7" class="st3" width="10.2" height="10.2"/>
	<rect x="840.2" y="162.2" class="st3" width="10.2" height="10.2"/>
	<rect x="840.2" y="178.8" class="st3" width="10.2" height="10.2"/>
	<rect x="840.2" y="195.4" class="st3" width="10.2" height="10.2"/>
	<rect x="840.2" y="211.9" class="st3" width="10.2" height="10.2"/>
	<rect x="840.2" y="228.5" class="st3" width="10.2" height="10.2"/>
	<rect x="840.2" y="245.1" class="st3" width="10.2" height="10.2"/>
	<rect x="840.2" y="261.6" class="st3" width="10.2" height="10.2"/>
	<rect x="840.2" y="278.2" class="st3" width="10.2" height="10.2"/>
	<rect x="840.2" y="294.8" class="st3" width="10.2" height="10.2"/>
	<g>
		<path class="st3" d="M825.7,65.4v-10c0-3.5,2.9-6.4,6.4-6.4h278.8c3.5,0,6.4,2.9,6.4,6.4v10H825.7z"/>
		<path class="st1" d="M1110.8,49.8c3.1,0,5.6,2.5,5.6,5.6v9.2h-290v-9.2c0-3.1,2.5-5.6,5.6-5.6H1110.8 M1110.8,48.2H832.1
			c-4,0-7.2,3.2-7.2,7.2v10.8H1118V55.4C1118,51.5,1114.8,48.2,1110.8,48.2L1110.8,48.2z"/>
	</g>
	<circle class="st1" cx="834.4" cy="57.2" r="2.3"/>
	<circle class="st1" cx="842.5" cy="57.2" r="2.3"/>
	<circle class="st1" cx="850.6" cy="57.2" r="2.3"/>
</g>
<g>
	<g>
		<path class="st2" d="M1243.3,27.3v255.5c0,4-3.2,7.2-7.2,7.2H957.4c-4,0-7.2-3.2-7.2-7.2V27.3c0-4,3.2-7.2,7.2-7.2h278.8
			C1240.1,20.1,1243.3,23.3,1243.3,27.3z"/>
		<g>
			<path class="st1" d="M1236.1,289.4H957.4c-4,0-7.2-3.2-7.2-7.2V37.5h293.2v244.7C1243.3,286.2,1240.1,289.4,1236.1,289.4z"/>
			<rect x="965.5" y="50.7" class="st3" width="10.2" height="10.2"/>
			<rect x="982.1" y="50.7" class="st3" width="31.7" height="10.2"/>
			<rect x="1018.3" y="50.7" class="st3" width="133.7" height="10.2"/>
			<rect x="982.1" y="67.2" class="st3" width="46" height="10.2"/>
			<rect x="997.1" y="83.8" class="st3" width="60.5" height="10.2"/>
			<rect x="1062.1" y="83.8" class="st3" width="15.6" height="10.2"/>
			<rect x="997.1" y="100.4" class="st3" width="46" height="10.2"/>
			<rect x="982.1" y="116.9" class="st3" width="27.2" height="10.2"/>
			<rect x="982.1" y="133.5" class="st3" width="46" height="10.2"/>
			<rect x="997.1" y="150.1" class="st3" width="46" height="10.2"/>
			<rect x="1047.6" y="150.1" class="st3" width="10.2" height="10.2"/>
			<rect x="1061.5" y="150.1" class="st3" width="84.2" height="10.2"/>
			<rect x="1150.2" y="150.1" class="st3" width="47.8" height="10.2"/>
			<rect x="1012.1" y="166.6" class="st3" width="35.5" height="10.2"/>
			<rect x="1052.1" y="166.6" class="st3" width="48.4" height="10.2"/>
			<rect x="1012.1" y="183.2" class="st3" width="46" height="10.2"/>
			<rect x="982.1" y="199.8" class="st3" width="38" height="10.2"/>
			<rect x="982.1" y="216.3" class="st3" width="27.2" height="10.2"/>
			<rect x="1013.8" y="216.3" class="st3" width="47.7" height="10.2"/>
			<rect x="997.1" y="232.9" class="st3" width="46" height="10.2"/>
			<rect x="1047.6" y="232.9" class="st3" width="22.3" height="10.2"/>
			<rect x="982.1" y="249.4" class="st3" width="46" height="10.2"/>
			<rect x="982.1" y="266" class="st3" width="38" height="10.2"/>
			<rect x="965.5" y="67.2" class="st3" width="10.2" height="10.2"/>
			<rect x="965.5" y="83.8" class="st3" width="10.2" height="10.2"/>
			<rect x="965.5" y="100.4" class="st3" width="10.2" height="10.2"/>
			<rect x="965.5" y="116.9" class="st3" width="10.2" height="10.2"/>
			<rect x="965.5" y="133.5" class="st3" width="10.2" height="10.2"/>
			<rect x="965.5" y="150.1" class="st3" width="10.2" height="10.2"/>
			<rect x="965.5" y="166.6" class="st3" width="10.2" height="10.2"/>
			<rect x="965.5" y="183.2" class="st3" width="10.2" height="10.2"/>
			<rect x="965.5" y="199.8" class="st3" width="10.2" height="10.2"/>
			<rect x="965.5" y="216.3" class="st3" width="10.2" height="10.2"/>
			<rect x="965.5" y="232.9" class="st3" width="10.2" height="10.2"/>
			<rect x="965.5" y="249.4" class="st3" width="10.2" height="10.2"/>
			<rect x="965.5" y="266" class="st3" width="10.2" height="10.2"/>
			<g>
				<path class="st3" d="M951,36.7v-10c0-3.5,2.9-6.4,6.4-6.4h278.8c3.5,0,6.4,2.9,6.4,6.4v10H951z"/>
				<path class="st1" d="M1236.1,21c3.1,0,5.6,2.5,5.6,5.6v9.2h-290v-9.2c0-3.1,2.5-5.6,5.6-5.6L1236.1,21 M1236.1,19.5H957.4
					c-4,0-7.2,3.2-7.2,7.2v10.8h293.2V26.7C1243.3,22.7,1240.1,19.5,1236.1,19.5L1236.1,19.5z"/>
			</g>
		</g>
	</g>
	<circle class="st1" cx="959.8" cy="28.5" r="2.3"/>
	<circle class="st1" cx="967.9" cy="28.5" r="2.3"/>
	<circle class="st1" cx="976" cy="28.5" r="2.3"/>
</g>
<g>
	<path class="st2" d="M585.1,428.8v255.5c0,4-3.2,7.2-7.2,7.2H299.1c-4,0-7.2-3.2-7.2-7.2V428.8c0-4,3.2-7.2,7.2-7.2h278.8
		C581.8,421.6,585.1,424.9,585.1,428.8z"/>
	<path class="st1" d="M577.9,690.8H299.1c-4,0-7.2-3.2-7.2-7.2V438.9h293.2v244.7C585.1,687.6,581.8,690.8,577.9,690.8z"/>
	<rect x="307.3" y="452.1" class="st3" width="10.2" height="10.2"/>
	<rect x="323.8" y="452.1" class="st3" width="31.7" height="10.2"/>
	<rect x="360" y="452.1" class="st3" width="133.7" height="10.2"/>
	<rect x="323.8" y="468.7" class="st3" width="46" height="10.2"/>
	<rect x="338.8" y="485.2" class="st3" width="60.5" height="10.2"/>
	<rect x="403.8" y="485.2" class="st3" width="15.6" height="10.2"/>
	<rect x="338.8" y="501.8" class="st3" width="46" height="10.2"/>
	<rect x="323.8" y="518.4" class="st3" width="27.2" height="10.2"/>
	<rect x="323.8" y="534.9" class="st3" width="46" height="10.2"/>
	<rect x="338.8" y="551.5" class="st3" width="46" height="10.2"/>
	<rect x="389.3" y="551.5" class="st3" width="10.2" height="10.2"/>
	<rect x="403.2" y="551.5" class="st3" width="84.2" height="10.2"/>
	<rect x="491.9" y="551.5" class="st3" width="47.8" height="10.2"/>
	<rect x="353.8" y="568.1" class="st3" width="35.5" height="10.2"/>
	<rect x="393.8" y="568.1" class="st3" width="48.4" height="10.2"/>
	<rect x="353.8" y="584.6" class="st3" width="46" height="10.2"/>
	<rect x="323.8" y="601.2" class="st3" width="38" height="10.2"/>
	<rect x="323.8" y="617.8" class="st3" width="27.2" height="10.2"/>
	<rect x="355.5" y="617.8" class="st3" width="47.7" height="10.2"/>
	<rect x="338.8" y="634.3" class="st3" width="46" height="10.2"/>
	<rect x="389.3" y="634.3" class="st3" width="22.3" height="10.2"/>
	<rect x="323.8" y="650.9" class="st3" width="46" height="10.2"/>
	<rect x="323.8" y="667.5" class="st3" width="38" height="10.2"/>
	<rect x="307.3" y="468.7" class="st3" width="10.2" height="10.2"/>
	<rect x="307.3" y="485.2" class="st3" width="10.2" height="10.2"/>
	<rect x="307.3" y="501.8" class="st3" width="10.2" height="10.2"/>
	<rect x="307.3" y="518.4" class="st3" width="10.2" height="10.2"/>
	<rect x="307.3" y="534.9" class="st3" width="10.2" height="10.2"/>
	<rect x="307.3" y="551.5" class="st3" width="10.2" height="10.2"/>
	<rect x="307.3" y="568.1" class="st3" width="10.2" height="10.2"/>
	<rect x="307.3" y="584.6" class="st3" width="10.2" height="10.2"/>
	<rect x="307.3" y="601.2" class="st3" width="10.2" height="10.2"/>
	<rect x="307.3" y="617.8" class="st3" width="10.2" height="10.2"/>
	<rect x="307.3" y="634.3" class="st3" width="10.2" height="10.2"/>
	<rect x="307.3" y="650.9" class="st3" width="10.2" height="10.2"/>
	<rect x="307.3" y="667.5" class="st3" width="10.2" height="10.2"/>
	<g>
		<path class="st3" d="M292.7,438.1v-10c0-3.5,2.9-6.4,6.4-6.4h278.8c3.5,0,6.4,2.9,6.4,6.4v10H292.7z"/>
		<path class="st1" d="M577.9,422.5c3.1,0,5.6,2.5,5.6,5.6v9.2h-290v-9.2c0-3.1,2.5-5.6,5.6-5.6H577.9 M577.9,420.9H299.1
			c-4,0-7.2,3.2-7.2,7.2v10.8h293.2v-10.8C585.1,424.2,581.8,420.9,577.9,420.9L577.9,420.9z"/>
	</g>
	<circle class="st1" cx="301.5" cy="429.9" r="2.3"/>
	<circle class="st1" cx="309.5" cy="429.9" r="2.3"/>
	<circle class="st1" cx="317.6" cy="429.9" r="2.3"/>
</g>
<g>
	<path class="st2" d="M305.5,383.9v255.5c0,4-3.2,7.2-7.2,7.2H19.6c-4,0-7.2-3.2-7.2-7.2V383.9c0-4,3.2-7.2,7.2-7.2h278.8
		C302.3,376.7,305.5,379.9,305.5,383.9z"/>
	<path class="st1" d="M298.3,645.9H19.6c-4,0-7.2-3.2-7.2-7.2V394h293.2v244.7C305.5,642.6,302.3,645.9,298.3,645.9z"/>
	<rect x="27.7" y="407.1" class="st3" width="10.2" height="10.2"/>
	<rect x="44.3" y="407.1" class="st3" width="31.7" height="10.2"/>
	<rect x="80.4" y="407.1" class="st3" width="133.7" height="10.2"/>
	<rect x="44.3" y="423.7" class="st3" width="46" height="10.2"/>
	<rect x="59.3" y="440.3" class="st3" width="60.5" height="10.2"/>
	<rect x="124.3" y="440.3" class="st3" width="15.6" height="10.2"/>
	<rect x="59.3" y="456.8" class="st3" width="46" height="10.2"/>
	<rect x="44.3" y="473.4" class="st3" width="27.2" height="10.2"/>
	<rect x="44.3" y="490" class="st3" width="46" height="10.2"/>
	<rect x="59.3" y="506.5" class="st3" width="46" height="10.2"/>
	<rect x="109.8" y="506.5" class="st3" width="10.2" height="10.2"/>
	<rect x="123.7" y="506.5" class="st3" width="84.2" height="10.2"/>
	<rect x="212.4" y="506.5" class="st3" width="47.8" height="10.2"/>
	<rect x="74.3" y="523.1" class="st3" width="35.5" height="10.2"/>
	<rect x="114.3" y="523.1" class="st3" width="48.4" height="10.2"/>
	<rect x="74.3" y="539.7" class="st3" width="46" height="10.2"/>
	<rect x="44.3" y="556.2" class="st3" width="38" height="10.2"/>
	<rect x="44.3" y="572.8" class="st3" width="27.2" height="10.2"/>
	<rect x="76" y="572.8" class="st3" width="47.7" height="10.2"/>
	<rect x="59.3" y="589.4" class="st3" width="46" height="10.2"/>
	<rect x="109.8" y="589.4" class="st3" width="22.3" height="10.2"/>
	<rect x="44.3" y="605.9" class="st3" width="46" height="10.2"/>
	<rect x="44.3" y="622.5" class="st3" width="38" height="10.2"/>
	<rect x="27.7" y="423.7" class="st3" width="10.2" height="10.2"/>
	<rect x="27.7" y="440.3" class="st3" width="10.2" height="10.2"/>
	<rect x="27.7" y="456.8" class="st3" width="10.2" height="10.2"/>
	<rect x="27.7" y="473.4" class="st3" width="10.2" height="10.2"/>
	<rect x="27.7" y="490" class="st3" width="10.2" height="10.2"/>
	<rect x="27.7" y="506.5" class="st3" width="10.2" height="10.2"/>
	<rect x="27.7" y="523.1" class="st3" width="10.2" height="10.2"/>
	<rect x="27.7" y="539.7" class="st3" width="10.2" height="10.2"/>
	<rect x="27.7" y="556.2" class="st3" width="10.2" height="10.2"/>
	<rect x="27.7" y="572.8" class="st3" width="10.2" height="10.2"/>
	<rect x="27.7" y="589.4" class="st3" width="10.2" height="10.2"/>
	<rect x="27.7" y="605.9" class="st3" width="10.2" height="10.2"/>
	<rect x="27.7" y="622.5" class="st3" width="10.2" height="10.2"/>
	<g>
		<path class="st3" d="M13.1,393.2v-10c0-3.5,2.9-6.4,6.4-6.4h278.8c3.5,0,6.4,2.9,6.4,6.4v10H13.1z"/>
		<path class="st1" d="M298.3,377.5c3.1,0,5.6,2.5,5.6,5.6v9.2h-290v-9.2c0-3.1,2.5-5.6,5.6-5.6H298.3 M298.3,376H19.6
			c-4,0-7.2,3.2-7.2,7.2V394h293.2v-10.8C305.5,379.2,302.3,376,298.3,376L298.3,376z"/>
	</g>
	<circle class="st1" cx="21.9" cy="385" r="2.3"/>
	<circle class="st1" cx="30" cy="385" r="2.3"/>
	<circle class="st1" cx="38.1" cy="385" r="2.3"/>
</g>
<g>
	<g>
		<g>
			<path class="st2" d="M770.5,127.1v255.5c0,4-3.2,7.2-7.2,7.2H484.6c-4,0-7.2-3.2-7.2-7.2V127.1c0-4,3.2-7.2,7.2-7.2h278.8
				C767.3,119.9,770.5,123.1,770.5,127.1z"/>
			<g>
				<g>
					<path class="st3" d="M484.6,388.4c-3.5,0-6.4-2.9-6.4-6.4V138.1h291.6V382c0,3.5-2.9,6.4-6.4,6.4H484.6z"/>
					<path class="st1" d="M769,138.8V382c0,3.1-2.5,5.6-5.6,5.6H484.6c-3.1,0-5.6-2.5-5.6-5.6V138.8H769 M770.5,137.3H477.4V382
						c0,4,3.2,7.2,7.2,7.2h278.8c4,0,7.2-3.2,7.2-7.2V137.3H770.5z"/>
				</g>
				<g>
					<path class="st3" d="M478.1,136.5v-10c0-3.5,2.9-6.4,6.4-6.4h278.8c3.5,0,6.4,2.9,6.4,6.4v10H478.1z"/>
					<path class="st1" d="M763.3,120.8c3.1,0,5.6,2.5,5.6,5.6v9.2h-290v-9.2c0-3.1,2.5-5.6,5.6-5.6L763.3,120.8 M763.3,119.3H484.6
						c-4,0-7.2,3.2-7.2,7.2v10.8h293.2v-10.8C770.5,122.5,767.3,119.3,763.3,119.3L763.3,119.3z"/>
				</g>
			</g>
		</g>
		<circle class="st1" cx="487" cy="128.3" r="2.3"/>
		<circle class="st1" cx="495.1" cy="128.3" r="2.3"/>
		<circle class="st1" cx="503.2" cy="128.3" r="2.3"/>
	</g>
	<path class="st4" d="M580.8,222.8v20.7l-14-24.2L552,244.9c-4.1-7.9-6.4-16.8-6.4-26.3c0-31.6,25.6-57.2,57.2-57.2
		c31.6,0,57.2,25.6,57.2,57.2c0,1.4-0.1,2.9-0.2,4.3h-79V222.8z"/>
	<path class="st4" d="M715.9,222.8v135h-135v-58.2h32.4l-13.9-24c1.2,0.1,2.3,0.1,3.5,0.1c30.2,0,54.9-23.3,57.1-53h55.9V222.8z"/>
	<path class="st4" d="M580.8,271.4v28.3h-60.4l31.6-54.8C558.3,256.8,568.4,266.2,580.8,271.4z"/>
	<path class="st4" d="M599.4,275.7c-6.5-0.4-12.8-1.9-18.5-4.3v-27.8L599.4,275.7z"/>
</g>
<g>
	<g>
		<g>
			<path class="st2" d="M937.1,309.3v255.5c0,4-3.2,7.2-7.2,7.2H651.1c-4,0-7.2-3.2-7.2-7.2V309.3c0-4,3.2-7.2,7.2-7.2h278.8
				C933.9,302.1,937.1,305.3,937.1,309.3z"/>
			<g>
				<g>
					<path class="st3" d="M651.1,571.1c-3.5,0-6.4-2.9-6.4-6.4v-244h291.6v243.9c0,3.5-2.9,6.4-6.4,6.4L651.1,571.1L651.1,571.1z"/>
					<path class="st1" d="M935.5,321.5v243.2c0,3.1-2.5,5.6-5.6,5.6H651.1c-3.1,0-5.6-2.5-5.6-5.6V321.5H935.5 M937.1,320H643.9
						v244.7c0,4,3.2,7.2,7.2,7.2h278.8c4,0,7.2-3.2,7.2-7.2L937.1,320L937.1,320z"/>
				</g>
				<g>
					<path class="st3" d="M644.7,319.2v-10c0-3.5,2.9-6.4,6.4-6.4h278.8c3.5,0,6.4,2.9,6.4,6.4v10H644.7z"/>
					<path class="st1" d="M929.9,303.5c3.1,0,5.6,2.5,5.6,5.6v9.2h-290v-9.2c0-3.1,2.5-5.6,5.6-5.6H929.9 M929.9,302H651.1
						c-4,0-7.2,3.2-7.2,7.2V320h293.2v-10.8C937.1,305.2,933.9,302,929.9,302L929.9,302z"/>
				</g>
			</g>
		</g>
		<circle class="st1" cx="653.6" cy="311" r="2.3"/>
		<circle class="st1" cx="661.6" cy="311" r="2.3"/>
		<circle class="st1" cx="669.7" cy="311" r="2.3"/>
	</g>
	<path class="st4" d="M747.4,405.5v20.7l-14-24.2l-14.8,25.6c-4.1-7.9-6.4-16.8-6.4-26.3c0-31.6,25.6-57.2,57.2-57.2
		c31.6,0,57.2,25.6,57.2,57.2c0,1.4-0.1,2.9-0.2,4.3h-79V405.5z"/>
	<path class="st4" d="M882.4,405.5v135h-135v-58.2h32.4l-13.9-24c1.2,0.1,2.3,0.1,3.5,0.1c30.2,0,54.9-23.3,57.1-53h55.9V405.5z"/>
	<path class="st4" d="M747.4,454.1v28.3H687l31.6-54.8C724.8,439.5,735,448.9,747.4,454.1z"/>
	<path class="st4" d="M766,458.4c-6.5-0.4-12.8-1.9-18.5-4.3v-27.8L766,458.4z"/>
</g>
<linearGradient id="SVGID_1_" gradientUnits="userSpaceOnUse" x1="712.6" y1="308.3" x2="712.6" y2="2" gradientTransform="matrix(1 0 0 -1 0 722)">
	<stop  offset="0" style="stop-color:#F1F0F0;stop-opacity:0"/>
	<stop  offset="0.8159" style="stop-color:#F1F0F0"/>
</linearGradient>
<rect y="413.7" class="st5" width="1425.2" height="306.3"/>
</svg>
